<svg xmlns="http://www.w3.org/2000/svg" xmlns:xlink="http://www.w3.org/1999/xlink" width="64" height="64" id="trolley"><defs><path id="a" d="M.06 64V.04H64V64z"></path></defs><g fill="none" fill-rule="evenodd"><mask id="b" fill="#fff"><use xlink:href="#a"></use></mask><path fill="#73BBA3" d="M64 32c0 17.673-14.327 32-32 32C14.327 64 0 49.673 0 32 0 14.327 14.327 0 32 0c17.673 0 32 14.327 32 32" mask="url(#b)"></path><path fill="#629986" d="M31.996 55.5a5.475 5.475 0 0 1-5.248-3.86 5.508 5.508 0 0 1 2.24-6.24l-7.969-25.497c-.154-.461-.729-1.793-2.207-1.793-.276 0-.584.046-.926.153a1.499 1.499 0 0 1-1.879-.984 1.5 1.5 0 0 1 .984-1.879 6.17 6.17 0 0 1 1.846-.297c2.771 0 4.498 2.156 5.045 3.906l1.336 4.274 8.743-5.48a.997.997 0 0 1 1.379.316l6.91 11.026a1 1 0 0 1-.316 1.378l-7.083 4.44 8.867-2.772a1.003 1.003 0 0 1 1.253.656l2.984 9.545a1 1 0 0 1-.657 1.253l-10.709 3.347 8.324-2.601a1.5 1.5 0 0 1 .894 2.863l-8.335 2.605a5.455 5.455 0 0 1-.602 2.692 5.463 5.463 0 0 1-3.232 2.697 5.494 5.494 0 0 1-1.642.252m-4.688-25.532 4.545 14.541-2.153-6.888a1.003 1.003 0 0 1 .656-1.253l.808-.253-.013-.013-3.843-6.134"></path><path fill="#F0CB83" d="m31.999 32.57 9.404-5.894-6.91-11.026-9.405 5.894 6.911 11.026"></path><path fill="#F0CB83" d="m31.999 32.57.531.847 9.404-5.893c.223-.14.385-.367.444-.624a1.01 1.01 0 0 0-.128-.755l-6.91-11.026a.999.999 0 0 0-1.378-.316l-9.405 5.894a1 1 0 0 0-.316 1.378l6.91 11.026c.14.223.367.385.624.444s.532.012.755-.128l-.531-.847.847-.531-6.379-10.179 7.709-4.831 5.848 9.331-8.556 5.363.531.847.847-.531-.847.531"></path><path fill="#FFFFFE" d="m44.912 41.39-11.931 3.73-9.099-29.111c-.036-.103-.3-.962-1.038-1.909a5.418 5.418 0 0 0-1.542-1.353 4.867 4.867 0 0 0-2.455-.646 6.185 6.185 0 0 0-1.856.299 1.5 1.5 0 1 0 .897 2.863c.386-.121.7-.162.959-.162.413.002.696.098.958.246.387.218.718.612.932.975.107.179.185.343.231.454l.047.12.007.02.566-.191-.569.179.003.012.566-.191-.569.179 9.547 30.542c.117.377.385.698.735.882.35.183.767.22 1.144.103l13.362-4.177a1.5 1.5 0 1 0-.895-2.864"></path><path fill="#D5915B" d="M33.638 43.867 47 39.69l-2.983-9.544-13.363 4.176 2.984 9.545"></path><path fill="#D5915B" d="m33.638 43.867.298.954 13.362-4.176c.252-.079.466-.258.588-.491.122-.233.147-.511.068-.762l-2.983-9.545a1 1 0 0 0-1.253-.656l-13.362 4.177a1 1 0 0 0-.656 1.253l2.983 9.544c.079.252.257.466.491.588.233.122.511.147.762.068l-.298-.954.954-.298-2.685-8.591 11.454-3.58 2.386 7.636-12.408 3.878.299.955.954-.298-.954.298"></path><path fill="#F0CB83" d="M35.815 45.806a4 4 0 1 1-7.636 2.386 4 4 0 0 1 7.636-2.386"></path><path fill="#4C5665" d="m35.815 45.806-1.432.447a2.503 2.503 0 0 1-2.387 3.247 2.503 2.503 0 0 1-2.5-2.502 2.5 2.5 0 0 1 4.887-.745l1.432-.447 1.432-.448a5.501 5.501 0 1 0-10.501 3.282 5.501 5.501 0 0 0 10.501-3.282l-1.432.448"></path></g></svg>